      <svg xmlns="http://www.w3.org/2000/svg" className="shape-svg w-100"
                                id="Layer_1" viewBox="0 100 1400 800">
                                <defs xmlns="http://www.w3.org/2000/svg">
                                    <filter id="shadowFilter" x="-20%" y="-20%"
                                        width="150%" height="150%">
                                        <feDropShadow dx="0" dy="40" stdDeviation="25" flood-color="rgba(0,0,0,0.49)"></feDropShadow>
                                    </filter>
                                </defs>
                                <path fill="#192853" filter="url(#shadowFilter)"
                                    d="M1350,245.8V634.2a65.8,65.8,0,0,1-65.8,65.8H1075.11a65.67,65.67,0,0,1-58.65-36A80,80,0,0,0,945,620H455a80.07,80.07,0,0,0-71.46,44,65.65,65.65,0,0,1-58.64,36H115.8A65.8,65.8,0,0,1,50,634.2V165.8A65.8,65.8,0,0,1,115.8,100H649.88a65.66,65.66,0,0,1,58.66,36A80,80,0,0,0,780,180h504.2A65.8,65.8,0,0,1,1350,245.8Z"
                                >
                                </path>
                            </svg>