  <svg xmlns="http://www.w3.org/2000/svg" className="shape-svg w-100" viewBox="0 100 1400 650">
                                <defs xmlns="http://www.w3.org/2000/svg">
                                    <filter id="shadowFilter" x="-20%" y="-20%"
                                        width="150%" height="150%">
                                        <feDropShadow dx="0" dy="40" stdDeviation="25" flood-color="rgba(0,0,0,0.49)"></feDropShadow>
                                    </filter>
                                </defs>
                                <path fill="#192853"
                                    filter="url(#shadowFilter)"
                                    d="M1350,256.89V503.11A56.89,56.89,0,0,1,1293.11,560H779c-38,0-73.75-19.36-93.5-51.85A99.94,99.94,0,0,0,600,460H106.89A56.89,56.89,0,0,1,50,403.11V256.89A56.89,56.89,0,0,1,106.89,200H275a100.09,100.09,0,0,0,95.34-69.74A43.6,43.6,0,0,1,412,100H988a43.6,43.6,0,0,1,41.63,30.25A100.08,100.08,0,0,0,1125,200h168.11A56.89,56.89,0,0,1,1350,256.89Z"
                                />
                            </svg>