<svg xmlns="http://www.w3.org/2000/svg" className="shape-svg w-100" id="Layer_1" viewBox="0 100 1400 800">
                                <path fill="#192853" d="M1350,255.68V644.32A55.68,55.68,0,0,1,1294.32,700H786.68a55.67,55.67,0,0,1-53.3-39.57l-19.13-63.28A66.35,66.35,0,0,0,650.75,550H105.68A55.68,55.68,0,0,1,50,494.32V155.68A55.68,55.68,0,0,1,105.68,100H654.6a55.81,55.81,0,0,1,52,35.9A100,100,0,0,0,800,200h494.32A55.68,55.68,0,0,1,1350,255.68Z">
                                </path>
                            </svg>