<svg xmlns="http://www.w3.org/2000/svg" id="Layer_1" viewBox="0 100 1400 800">
    <defs>
        <filter id="shadowFilter" x="-20%" y="-20%" width="150%" height="150%">
            <feDropShadow dx="0" dy="40" stdDeviation="25" flood-color="rgba(0,0,0,0.49)"></feDropShadow>
        </filter>
    </defs>

    <path fill="#192853" filter="url(#shadowFilter)" d="M1350,245.8V634.2a65.8,65.8,0,0,1-65.8,65.8H1056.72a37.91,37.91,0,0,1-35.93-25.68A80,80,0,0,0,945,620H455a80.06,80.06,0,0,0-75.79,54.33A37.9,37.9,0,0,1,343.29,700H115.8A65.8,65.8,0,0,1,50,634.2V165.8A65.8,65.8,0,0,1,115.8,100H642.33c28,0,54.17,14.71,67.86,39.1A80,80,0,0,0,780,180h504.2A65.8,65.8,0,0,1,1350,245.8Z"></path>
</svg>
