<svg id="Layer_1" data-name="Layer 1" xmlns="http://www.w3.org/2000/svg" viewBox="0 0 1400 800"><defs><style>.cls-1{fill:#1f3261;}</style></defs><path class="cls-1" d="M1025,400h0a40,40,0,0,0,40,40h245a40,40,0,0,1,40,40V610a40,40,0,0,1-40,40H1065a40,40,0,0,1-40-40h0a40,40,0,0,0-40-40H415a40,40,0,0,0-40,40h0a40,40,0,0,1-40,40H90a40,40,0,0,1-40-40V480a40,40,0,0,1,40-40H335a40,40,0,0,0,40-40h0a40,40,0,0,0-40-40H90a40,40,0,0,1-40-40V270a40,40,0,0,1,40-40H335a40,40,0,0,0,40-40h0a40,40,0,0,1,40-40H985a40,40,0,0,1,40,40h0a40,40,0,0,0,40,40h245a40,40,0,0,1,40,40v50a40,40,0,0,1-40,40H1065A40,40,0,0,0,1025,400Z"/></svg>